<?xml version="1.0" encoding="UTF-8" standalone="no"?>
<!-- Created with Inkscape (http://www.inkscape.org/) -->

<svg
   width="103.49402mm"
   height="38.526131mm"
   viewBox="0 0 103.49402 38.526131"
   version="1.1"
   id="svg1"
   xml:space="preserve"
   xmlns="http://www.w3.org/2000/svg"
   xmlns:svg="http://www.w3.org/2000/svg"><defs
     id="defs1" /><g
     id="layer1"
     transform="translate(-18.206013,-59.669588)"><path
       d="m 23.858119,59.669591 h -5.652107 v 38.467282 h 5.652107 V 80.302542 L 44.8752,98.136873 h 8.725104 L 30.827231,78.820918 53.545425,59.669591 H 44.820323 L 23.858119,77.339302 Z M 59.30733,92.48476 v 5.652113 h 12.237099 c 10.590847,0 19.206201,-8.615359 19.206201,-19.261076 0,-10.590853 -8.615354,-19.151336 -19.206201,-19.151336 H 59.087835 v 21.949948 h 5.652109 V 65.376576 h 6.804485 c 7.462982,0 13.554094,5.981361 13.554094,13.499221 0,7.517852 -6.091112,13.608963 -13.554094,13.608963 z m 62.3927,5.652113 V 92.48476 H 111.60305 C 105.45707,92.265278 100.79271,87.271651 100.79271,81.18054 V 59.724461 H 95.140593 V 81.18054 c 0.05453,9.218982 7.188617,16.627084 16.407587,16.956333 z"
       id="text1"
       style="font-size:6.35px;font-family:'MBF Canno';-inkscape-font-specification:'MBF Canno, Normal';fill:#5c5b5b;fill-opacity:1;stroke-width:2.28645"
       aria-label="KDL" /><path
       id="rect1-9"
       style="fill:#9bc01b;stroke-width:1.94678"
       d="m 115.33458,92.484754 h 6.36545 v 5.652119 h -6.36545 z" /><path
       id="rect12"
       style="fill:#ffffff;fill-opacity:1;stroke:#ffffff;stroke-width:0.117717;stroke-opacity:1"
       d="m 114.3784,92.484749 h 0.95616 v 5.652107 h -0.95616 z" /></g></svg>
